<mxfile host="app.diagrams.net" agent="Mozilla/5.0 (Macintosh; Intel Mac OS X 10_15_7) AppleWebKit/537.36 (KHTML, like Gecko) Chrome/135.0.0.0 Safari/537.36" version="26.2.12">
  <diagram name="DSDiagram-step3" id="T3gOHbM4yeuvNq-GuTg-">
    <mxGraphModel dx="1002" dy="689" grid="1" gridSize="10" guides="1" tooltips="1" connect="1" arrows="1" fold="1" page="1" pageScale="1" pageWidth="850" pageHeight="1100" math="0" shadow="0">
      <root>
        <mxCell id="0" />
        <mxCell id="1" parent="0" />
        <mxCell id="2" value="AuthenticationService" style="swimlane" vertex="1" parent="1">
          <mxGeometry x="60" y="20" width="140" height="400" as="geometry" />
        </mxCell>
        <mxCell id="3" value="UserDatabase" style="swimlane" vertex="1" parent="1">
          <mxGeometry x="240" y="20" width="140" height="400" as="geometry" />
        </mxCell>
        <mxCell id="4" value="GameEngine" style="swimlane" vertex="1" parent="1">
          <mxGeometry x="420" y="20" width="140" height="400" as="geometry" />
        </mxCell>
        <mxCell id="5" value="getSavedProgress(user)" style="edgeStyle=orthogonalEdgeStyle;endArrow=block;" edge="1" parent="1" source="2" target="3">
          <mxGeometry relative="1" as="geometry" />
        </mxCell>
        <mxCell id="6" value="return GameProgress" style="edgeStyle=orthogonalEdgeStyle;endArrow=open;" edge="1" parent="1" source="3" target="2">
          <mxGeometry relative="1" as="geometry" />
        </mxCell>
        <mxCell id="7" value="loadProgress(progress)" style="edgeStyle=orthogonalEdgeStyle;endArrow=block;" edge="1" parent="1" source="2" target="4">
          <mxGeometry relative="1" as="geometry" />
        </mxCell>
        <mxCell id="8" value="renderUI()" style="edgeStyle=orthogonalEdgeStyle;endArrow=block;" edge="1" parent="1" source="4" target="2">
          <mxGeometry relative="1" as="geometry" />
        </mxCell>
      </root>
    </mxGraphModel>
  </diagram>
</mxfile>
